<svg xmlns="http://www.w3.org/2000/svg" width="920" height="540" viewBox="0 0 920 540">
<rect width="100%" height="100%" fill="#FFFFFF"/>
<style>
text { font-family: "Apple SD Gothic Neo", "Noto Sans KR", Arial, sans-serif; fill: #172033; }
.title { font-size: 22px; font-weight: 700; }
.subtitle { font-size: 12px; fill: #667085; }
.axis { font-size: 11px; fill: #667085; }
.label { font-size: 12px; }
.value { font-size: 11px; font-weight: 600; }
</style>
<text x="32" y="36" class="title">타깃과의 Pearson 상관계수 상위 수치 피처 (막대 길이=절대값)</text>
<text x="250" y="82" text-anchor="end" class="label">asof_pitcher_success_rate</text>
<rect x="260" y="66" width="580.00" height="20" rx="3" fill="#12B76A" opacity="0.88"/>
<text x="848.00" y="81" class="value">+0.0843</text>
<text x="250" y="112" text-anchor="end" class="label">asof_pitcher_prev5_game_success_rate</text>
<rect x="260" y="96" width="561.40" height="20" rx="3" fill="#12B76A" opacity="0.88"/>
<text x="829.40" y="111" class="value">+0.0816</text>
<text x="250" y="142" text-anchor="end" class="label">asof_pitcher_reverse_rate</text>
<rect x="260" y="126" width="547.11" height="20" rx="3" fill="#12B76A" opacity="0.88"/>
<text x="815.11" y="141" class="value">-0.0795</text>
<text x="250" y="172" text-anchor="end" class="label">asof_pitcher_prev3_game_success_rate</text>
<rect x="260" y="156" width="535.30" height="20" rx="3" fill="#12B76A" opacity="0.88"/>
<text x="803.30" y="171" class="value">+0.0778</text>
<text x="250" y="202" text-anchor="end" class="label">asof_pitcher_prev1_game_success_rate</text>
<rect x="260" y="186" width="424.57" height="20" rx="3" fill="#12B76A" opacity="0.88"/>
<text x="692.57" y="201" class="value">+0.0617</text>
<text x="250" y="232" text-anchor="end" class="label">asof_batter_success_rate</text>
<rect x="260" y="216" width="405.70" height="20" rx="3" fill="#12B76A" opacity="0.88"/>
<text x="673.70" y="231" class="value">+0.0589</text>
<text x="250" y="262" text-anchor="end" class="label">season</text>
<rect x="260" y="246" width="332.23" height="20" rx="3" fill="#12B76A" opacity="0.88"/>
<text x="600.23" y="261" class="value">-0.0483</text>
<text x="250" y="292" text-anchor="end" class="label">asof_batter_n</text>
<rect x="260" y="276" width="249.67" height="20" rx="3" fill="#12B76A" opacity="0.88"/>
<text x="517.67" y="291" class="value">-0.0363</text>
<text x="250" y="322" text-anchor="end" class="label">asof_pitcher_middle_rate</text>
<rect x="260" y="306" width="248.28" height="20" rx="3" fill="#12B76A" opacity="0.88"/>
<text x="516.28" y="321" class="value">-0.0361</text>
<text x="250" y="352" text-anchor="end" class="label">asof_batter_middle_rate</text>
<rect x="260" y="336" width="232.78" height="20" rx="3" fill="#12B76A" opacity="0.88"/>
<text x="500.78" y="351" class="value">-0.0338</text>
<text x="250" y="382" text-anchor="end" class="label">asof_pitcher_prev5_game_middle_rate</text>
<rect x="260" y="366" width="219.91" height="20" rx="3" fill="#12B76A" opacity="0.88"/>
<text x="487.91" y="381" class="value">-0.0320</text>
<text x="250" y="412" text-anchor="end" class="label">asof_pitcher_prev3_game_middle_rate</text>
<rect x="260" y="396" width="194.75" height="20" rx="3" fill="#12B76A" opacity="0.88"/>
<text x="462.75" y="411" class="value">-0.0283</text>
<text x="250" y="442" text-anchor="end" class="label">asof_pitcher_prev1_game_middle_rate</text>
<rect x="260" y="426" width="133.93" height="20" rx="3" fill="#12B76A" opacity="0.88"/>
<text x="401.93" y="441" class="value">-0.0195</text>
<text x="250" y="472" text-anchor="end" class="label">asof_pitcher_ball_rate</text>
<rect x="260" y="456" width="122.06" height="20" rx="3" fill="#12B76A" opacity="0.88"/>
<text x="390.06" y="471" class="value">-0.0177</text>
<text x="250" y="502" text-anchor="end" class="label">asof_pitcher_offspeed_rate</text>
<rect x="260" y="486" width="94.97" height="20" rx="3" fill="#12B76A" opacity="0.88"/>
<text x="362.97" y="501" class="value">+0.0138</text>
</svg>