<svg xmlns="http://www.w3.org/2000/svg" width="940" height="260" viewBox="0 0 940 260">
<rect width="100%" height="100%" fill="#FFFFFF"/>
<style>
text { font-family: "Apple SD Gothic Neo", "Noto Sans KR", Arial, sans-serif; fill: #172033; }
.title { font-size: 22px; font-weight: 700; }
.axis { font-size: 11px; fill: #667085; }
.label { font-size: 12px; }
.value { font-size: 11px; font-weight: 600; }
.legend { font-size: 12px; }
</style>
<text x="32" y="36" class="title">2024 단일 피처 대회 환산 점수</text>
<text x="290" y="76" text-anchor="end" class="label">주어진 asof 통산 성공률 (EB k=300)</text>
<rect x="300" y="60" width="0.00" height="20" rx="3" fill="#2563EB" opacity="0.88"/>
<text x="308.00" y="75" class="value">0점</text>
<text x="290" y="106" text-anchor="end" class="label">주어진 최근 5경기 성공률</text>
<rect x="300" y="90" width="0.00" height="20" rx="3" fill="#2563EB" opacity="0.88"/>
<text x="308.00" y="105" class="value">0점</text>
<text x="290" y="136" text-anchor="end" class="label">학습 평균 상수</text>
<rect x="300" y="120" width="0.00" height="20" rx="3" fill="#2563EB" opacity="0.88"/>
<text x="308.00" y="135" class="value">0점</text>
<text x="290" y="166" text-anchor="end" class="label">복원한 시즌 내 성공률 (EB k=300)</text>
<rect x="300" y="150" width="304.52" height="20" rx="3" fill="#2563EB" opacity="0.88"/>
<text x="612.52" y="165" class="value">283점</text>
<text x="290" y="196" text-anchor="end" class="label">복원한 시즌 내 성공률 (EB k=100)</text>
<rect x="300" y="180" width="495.62" height="20" rx="3" fill="#2563EB" opacity="0.88"/>
<text x="803.62" y="195" class="value">460점</text>
<text x="290" y="226" text-anchor="end" class="label">복원한 시즌 내 성공률 (EB k=50)</text>
<rect x="300" y="210" width="530.00" height="20" rx="3" fill="#2563EB" opacity="0.88"/>
<text x="838.00" y="225" class="value">492점</text>
</svg>