<svg xmlns="http://www.w3.org/2000/svg" width="920" height="460" viewBox="0 0 920 460">
<rect width="100%" height="100%" fill="#FFFFFF"/>
<style>
text { font-family: "Apple SD Gothic Neo", "Noto Sans KR", Arial, sans-serif; fill: #172033; }
.title { font-size: 22px; font-weight: 700; }
.subtitle { font-size: 12px; fill: #667085; }
.axis { font-size: 11px; fill: #667085; }
.label { font-size: 12px; }
.value { font-size: 11px; font-weight: 600; }
</style>
<text x="32" y="36" class="title">시즌별 제구 성공률</text>
<line x1="90" y1="70.0" x2="880" y2="70.0" stroke="#E6EAF0"/>
<text x="78" y="74.0" text-anchor="end" class="axis">58.04%</text>
<line x1="90" y1="134.0" x2="880" y2="134.0" stroke="#E6EAF0"/>
<text x="78" y="138.0" text-anchor="end" class="axis">55.84%</text>
<line x1="90" y1="198.0" x2="880" y2="198.0" stroke="#E6EAF0"/>
<text x="78" y="202.0" text-anchor="end" class="axis">53.64%</text>
<polyline points="90.0,115.7 248.0,208.7 406.0,208.5 564.0,219.7 722.0,304.0 880.0,344.3" fill="none" stroke="#2563EB" stroke-width="3"/>
<line x1="90" y1="262.0" x2="880" y2="262.0" stroke="#E6EAF0"/>
<text x="78" y="266.0" text-anchor="end" class="axis">51.44%</text>
<line x1="90" y1="326.0" x2="880" y2="326.0" stroke="#E6EAF0"/>
<text x="78" y="330.0" text-anchor="end" class="axis">49.24%</text>
<line x1="90" y1="390.0" x2="880" y2="390.0" stroke="#E6EAF0"/>
<text x="78" y="394.0" text-anchor="end" class="axis">47.04%</text>
<circle cx="90.0" cy="115.7" r="5" fill="#2563EB"/>
<text x="90.0" y="418" text-anchor="middle" class="axis">2019</text>
<text x="90.0" y="103.7" text-anchor="middle" class="value">56.47%</text>
<circle cx="248.0" cy="208.7" r="5" fill="#2563EB"/>
<text x="248.0" y="418" text-anchor="middle" class="axis">2020</text>
<text x="248.0" y="196.7" text-anchor="middle" class="value">53.27%</text>
<circle cx="406.0" cy="208.5" r="5" fill="#2563EB"/>
<text x="406.0" y="418" text-anchor="middle" class="axis">2021</text>
<text x="406.0" y="196.5" text-anchor="middle" class="value">53.28%</text>
<circle cx="564.0" cy="219.7" r="5" fill="#2563EB"/>
<text x="564.0" y="418" text-anchor="middle" class="axis">2022</text>
<text x="564.0" y="207.7" text-anchor="middle" class="value">52.89%</text>
<circle cx="722.0" cy="304.0" r="5" fill="#2563EB"/>
<text x="722.0" y="418" text-anchor="middle" class="axis">2023</text>
<text x="722.0" y="292.0" text-anchor="middle" class="value">50.00%</text>
<circle cx="880.0" cy="344.3" r="5" fill="#2563EB"/>
<text x="880.0" y="418" text-anchor="middle" class="axis">2024</text>
<text x="880.0" y="332.3" text-anchor="middle" class="value">48.61%</text>
</svg>