<svg xmlns="http://www.w3.org/2000/svg" width="920" height="330" viewBox="0 0 920 330">
<rect width="100%" height="100%" fill="#FFFFFF"/>
<style>
text { font-family: "Apple SD Gothic Neo", "Noto Sans KR", Arial, sans-serif; fill: #172033; }
.title { font-size: 22px; font-weight: 700; }
.subtitle { font-size: 12px; fill: #667085; }
.axis { font-size: 11px; fill: #667085; }
.label { font-size: 12px; }
.value { font-size: 11px; font-weight: 600; }
</style>
<text x="32" y="36" class="title">주자 상황별 제구 성공률</text>
<text x="250" y="82" text-anchor="end" class="label">___</text>
<rect x="260" y="66" width="565.92" height="20" rx="3" fill="#7F56D9" opacity="0.88"/>
<text x="833.92" y="81" class="value">52.30%</text>
<text x="250" y="112" text-anchor="end" class="label">1__</text>
<rect x="260" y="96" width="568.31" height="20" rx="3" fill="#7F56D9" opacity="0.88"/>
<text x="836.31" y="111" class="value">52.53%</text>
<text x="250" y="142" text-anchor="end" class="label">_2_</text>
<rect x="260" y="126" width="567.89" height="20" rx="3" fill="#7F56D9" opacity="0.88"/>
<text x="835.89" y="141" class="value">52.49%</text>
<text x="250" y="172" text-anchor="end" class="label">__3</text>
<rect x="260" y="156" width="580.00" height="20" rx="3" fill="#7F56D9" opacity="0.88"/>
<text x="848.00" y="171" class="value">53.61%</text>
<text x="250" y="202" text-anchor="end" class="label">12_</text>
<rect x="260" y="186" width="564.05" height="20" rx="3" fill="#7F56D9" opacity="0.88"/>
<text x="832.05" y="201" class="value">52.13%</text>
<text x="250" y="232" text-anchor="end" class="label">1_3</text>
<rect x="260" y="216" width="571.17" height="20" rx="3" fill="#7F56D9" opacity="0.88"/>
<text x="839.17" y="231" class="value">52.79%</text>
<text x="250" y="262" text-anchor="end" class="label">_23</text>
<rect x="260" y="246" width="567.92" height="20" rx="3" fill="#7F56D9" opacity="0.88"/>
<text x="835.92" y="261" class="value">52.49%</text>
<text x="250" y="292" text-anchor="end" class="label">123</text>
<rect x="260" y="276" width="558.44" height="20" rx="3" fill="#7F56D9" opacity="0.88"/>
<text x="826.44" y="291" class="value">51.61%</text>
</svg>