<svg xmlns="http://www.w3.org/2000/svg" width="940" height="382" viewBox="0 0 940 382">
<rect width="100%" height="100%" fill="#FFFFFF"/>
<style>
text { font-family: "Apple SD Gothic Neo", "Noto Sans KR", Arial, sans-serif; fill: #172033; }
.title { font-size: 22px; font-weight: 700; }
.axis { font-size: 11px; fill: #667085; }
.label { font-size: 12px; }
.value { font-size: 11px; font-weight: 600; }
.legend { font-size: 12px; }
</style>
<text x="32" y="36" class="title">Trackman 물리량과 Target: 투수 간 vs 투구 내 상관</text>
<line x1="505.0" y1="72" x2="505.0" y2="342" stroke="#98A2B3" stroke-dasharray="4 4"/>
<text x="505.0" y="360" text-anchor="middle" class="axis">0</text>
<text x="210" y="360" text-anchor="middle" class="axis">-0.20</text>
<text x="800" y="360" text-anchor="middle" class="axis">+0.20</text>
<rect x="810" y="58" width="12" height="12" fill="#DC2626"/>
<text x="826" y="69" class="legend">투수 간</text>
<rect x="810" y="76" width="12" height="12" fill="#2563EB"/>
<text x="826" y="87" class="legend">투구 내</text>
<text x="200" y="92" text-anchor="end" class="label">rel_speed</text>
<rect x="251.5" y="78" width="253.5" height="11" fill="#DC2626" opacity="0.9"/>
<rect x="505.0" y="91" width="83.1" height="11" fill="#2563EB" opacity="0.9"/>
<text x="200" y="126" text-anchor="end" class="label">spin_rate</text>
<rect x="319.2" y="112" width="185.8" height="11" fill="#DC2626" opacity="0.9"/>
<rect x="505.0" y="125" width="6.6" height="11" fill="#2563EB" opacity="0.9"/>
<text x="200" y="160" text-anchor="end" class="label">induced_vert_break</text>
<rect x="459.3" y="146" width="45.7" height="11" fill="#DC2626" opacity="0.9"/>
<rect x="505.0" y="159" width="85.3" height="11" fill="#2563EB" opacity="0.9"/>
<text x="200" y="194" text-anchor="end" class="label">horz_break</text>
<rect x="505.0" y="180" width="222.3" height="11" fill="#DC2626" opacity="0.9"/>
<rect x="505.0" y="193" width="8.5" height="11" fill="#2563EB" opacity="0.9"/>
<text x="200" y="228" text-anchor="end" class="label">extension</text>
<rect x="505.0" y="214" width="129.6" height="11" fill="#DC2626" opacity="0.9"/>
<rect x="505.0" y="227" width="52.4" height="11" fill="#2563EB" opacity="0.9"/>
<text x="200" y="262" text-anchor="end" class="label">rel_height</text>
<rect x="493.2" y="248" width="11.8" height="11" fill="#DC2626" opacity="0.9"/>
<rect x="497.0" y="261" width="8.0" height="11" fill="#2563EB" opacity="0.9"/>
<text x="200" y="296" text-anchor="end" class="label">rel_side</text>
<rect x="505.0" y="282" width="195.6" height="11" fill="#DC2626" opacity="0.9"/>
<rect x="504.4" y="295" width="0.6" height="11" fill="#2563EB" opacity="0.9"/>
<text x="200" y="330" text-anchor="end" class="label">zone_speed</text>
<rect x="258.3" y="316" width="246.7" height="11" fill="#DC2626" opacity="0.9"/>
<rect x="505.0" y="329" width="82.9" height="11" fill="#2563EB" opacity="0.9"/>
</svg>