<svg xmlns="http://www.w3.org/2000/svg" width="920" height="270" viewBox="0 0 920 270">
<rect width="100%" height="100%" fill="#FFFFFF"/>
<style>
text { font-family: "Apple SD Gothic Neo", "Noto Sans KR", Arial, sans-serif; fill: #172033; }
.title { font-size: 22px; font-weight: 700; }
.subtitle { font-size: 12px; fill: #667085; }
.axis { font-size: 11px; fill: #667085; }
.label { font-size: 12px; }
.value { font-size: 11px; font-weight: 600; }
</style>
<text x="32" y="36" class="title">시즌별 학습 행 수</text>
<text x="250" y="82" text-anchor="end" class="label">2019</text>
<rect x="260" y="66" width="543.18" height="20" rx="3" fill="#2563EB" opacity="0.88"/>
<text x="811.18" y="81" class="value">237,413</text>
<text x="250" y="112" text-anchor="end" class="label">2020</text>
<rect x="260" y="96" width="558.45" height="20" rx="3" fill="#2563EB" opacity="0.88"/>
<text x="826.45" y="111" class="value">244,087</text>
<text x="250" y="142" text-anchor="end" class="label">2021</text>
<rect x="260" y="126" width="565.31" height="20" rx="3" fill="#2563EB" opacity="0.88"/>
<text x="833.31" y="141" class="value">247,088</text>
<text x="250" y="172" text-anchor="end" class="label">2022</text>
<rect x="260" y="156" width="566.19" height="20" rx="3" fill="#2563EB" opacity="0.88"/>
<text x="834.19" y="171" class="value">247,472</text>
<text x="250" y="202" text-anchor="end" class="label">2023</text>
<rect x="260" y="186" width="561.74" height="20" rx="3" fill="#2563EB" opacity="0.88"/>
<text x="829.74" y="201" class="value">245,525</text>
<text x="250" y="232" text-anchor="end" class="label">2024</text>
<rect x="260" y="216" width="580.00" height="20" rx="3" fill="#2563EB" opacity="0.88"/>
<text x="848.00" y="231" class="value">253,507</text>
</svg>